<?xml version="1.0" encoding="utf-8"?>
<!-- Generator: Adobe Illustrator 20.1.0, SVG Export Plug-In . SVG Version: 6.00 Build 0)  -->
<svg version="1.1" id="Camada_1" xmlns="http://www.w3.org/2000/svg" xmlns:xlink="http://www.w3.org/1999/xlink" x="0px" y="0px"
	 viewBox="0 0 558.7 787.5" style="enable-background:new 0 0 558.7 787.5;" xml:space="preserve">
<style type="text/css">
	.st0{fill:none;stroke:#0000FF;stroke-width:2.834645e-02;}
	.st1{stroke:#0000FF;stroke-width:2.834645e-02;}
</style>
<title>svgOutput</title>
<desc>made with tinkercad</desc>
<line class="st0" x1="102" y1="51" x2="153.1" y2="51"/>
<line class="st0" x1="102" y1="459.2" x2="153.1" y2="459.2"/>
<rect y="51" class="st0" width="255.1" height="51"/>
<rect y="102" class="st0" width="255.1" height="51"/>
<rect y="153.1" class="st0" width="255.1" height="51"/>
<rect y="204.1" class="st0" width="255.1" height="51"/>
<rect y="255.1" class="st0" width="255.1" height="51"/>
<rect y="306.1" class="st0" width="255.1" height="51"/>
<rect y="357.2" class="st0" width="255.1" height="51"/>
<rect y="408.2" class="st0" width="255.1" height="51"/>
<rect x="102" class="st1" width="51" height="510.2"/>
<rect y="459.2" class="st1" width="255.1" height="51"/>
<title>svgOutput</title>
<desc>made with tinkercad</desc>
<line class="st0" x1="405.6" y1="51" x2="456.7" y2="51"/>
<line class="st0" x1="405.6" y1="459.2" x2="456.7" y2="459.2"/>
<rect x="303.6" y="51" class="st0" width="255.1" height="51"/>
<rect x="303.6" y="102" class="st0" width="255.1" height="51"/>
<rect x="303.6" y="153.1" class="st0" width="255.1" height="51"/>
<rect x="303.6" y="204.1" class="st0" width="255.1" height="51"/>
<rect x="303.6" y="255.1" class="st0" width="255.1" height="51"/>
<rect x="303.6" y="306.1" class="st0" width="255.1" height="51"/>
<rect x="303.6" y="357.2" class="st0" width="255.1" height="51"/>
<rect x="303.6" y="408.2" class="st0" width="255.1" height="51"/>
<rect x="405.6" class="st1" width="51" height="510.2"/>
<rect x="303.6" y="459.2" class="st1" width="255.1" height="51"/>
<title>svgOutput</title>
<desc>made with tinkercad</desc>
<line class="st0" x1="51" y1="685.5" x2="51" y2="634.4"/>
<line class="st0" x1="459.2" y1="685.5" x2="459.2" y2="634.4"/>
<rect x="51" y="532.4" class="st0" width="51" height="255.1"/>
<rect x="102" y="532.4" class="st0" width="51" height="255.1"/>
<rect x="153.1" y="532.4" class="st0" width="51" height="255.1"/>
<rect x="204.1" y="532.4" class="st0" width="51" height="255.1"/>
<rect x="255.1" y="532.4" class="st0" width="51" height="255.1"/>
<rect x="306.1" y="532.4" class="st0" width="51" height="255.1"/>
<rect x="357.2" y="532.4" class="st0" width="51" height="255.1"/>
<rect x="408.2" y="532.4" class="st0" width="51" height="255.1"/>
<rect y="634.5" class="st1" width="510.2" height="51"/>
<rect x="459.2" y="532.4" class="st1" width="51" height="255.1"/>
</svg>
