<?xml version="1.0" encoding="utf-8"?>
<!-- Generator: Adobe Illustrator 20.1.0, SVG Export Plug-In . SVG Version: 6.00 Build 0)  -->
<svg version="1.1" id="Camada_1" xmlns="http://www.w3.org/2000/svg" xmlns:xlink="http://www.w3.org/1999/xlink" x="0px" y="0px"
	 viewBox="0 0 558.7 787.5" style="enable-background:new 0 0 558.7 787.5;" xml:space="preserve">
<style type="text/css">
	.st0{fill:#080409;stroke:#0000FF;stroke-width:2.834645e-02;}
	.st1{fill:none;stroke:#0000FF;stroke-width:2.834645e-02;}
</style>
<title>svgOutput</title>
<desc>made with tinkercad</desc>
<title>svgOutput</title>
<desc>made with tinkercad</desc>
<title>svgOutput</title>
<desc>made with tinkercad</desc>
<path class="st0" d="M255,50.4H153v408.2h102v51H153h-51H-0.1v-51h102V50.4h-102v-51h102h51h102v51H255z"/>
<line class="st1" x1="101.9" y1="50.4" x2="153" y2="50.4"/>
<line class="st1" x1="101.9" y1="458.6" x2="153" y2="458.6"/>
<rect x="-0.1" y="50.4" class="st1" width="255.1" height="51"/>
<rect x="-0.1" y="101.4" class="st1" width="255.1" height="51"/>
<rect x="-0.1" y="152.5" class="st1" width="255.1" height="51"/>
<rect x="-0.1" y="203.5" class="st1" width="255.1" height="51"/>
<rect x="-0.1" y="254.5" class="st1" width="255.1" height="51"/>
<rect x="-0.1" y="305.5" class="st1" width="255.1" height="51"/>
<rect x="-0.1" y="356.6" class="st1" width="255.1" height="51"/>
<rect x="-0.1" y="407.6" class="st1" width="255.1" height="51"/>
<path class="st0" d="M558.7,50.4h-102v408.2h102v51h-102h-51H303.6v-51h102V50.4h-102v-51h102h51h102v51H558.7z"/>
<line class="st1" x1="405.6" y1="50.4" x2="456.7" y2="50.4"/>
<line class="st1" x1="405.6" y1="458.6" x2="456.7" y2="458.6"/>
<rect x="303.6" y="50.4" class="st1" width="255.1" height="51"/>
<rect x="303.6" y="101.4" class="st1" width="255.1" height="51"/>
<rect x="303.6" y="152.5" class="st1" width="255.1" height="51"/>
<rect x="303.6" y="203.5" class="st1" width="255.1" height="51"/>
<rect x="303.6" y="254.5" class="st1" width="255.1" height="51"/>
<rect x="303.6" y="305.5" class="st1" width="255.1" height="51"/>
<rect x="303.6" y="356.6" class="st1" width="255.1" height="51"/>
<rect x="303.6" y="407.6" class="st1" width="255.1" height="51"/>
<path class="st0" d="M50.9,532.4v102h408.2v-102h51v102v51v102.1h-51v-102H50.9v102h-51l0-102v-51l0-102L50.9,532.4L50.9,532.4z"/>
<line class="st1" x1="50.9" y1="685.5" x2="50.9" y2="634.4"/>
<line class="st1" x1="459.1" y1="685.5" x2="459.1" y2="634.4"/>
<rect x="50.9" y="532.4" class="st1" width="51" height="255.1"/>
<rect x="101.9" y="532.4" class="st1" width="51" height="255.1"/>
<rect x="153" y="532.4" class="st1" width="51" height="255.1"/>
<rect x="204" y="532.4" class="st1" width="51" height="255.1"/>
<rect x="255" y="532.4" class="st1" width="51" height="255.1"/>
<rect x="306" y="532.4" class="st1" width="51" height="255.1"/>
<rect x="357.1" y="532.4" class="st1" width="51" height="255.1"/>
<rect x="408.1" y="532.4" class="st1" width="51" height="255.1"/>
</svg>
