<?xml version="1.0" encoding="utf-8"?>
<!-- Generator: Adobe Illustrator 20.1.0, SVG Export Plug-In . SVG Version: 6.00 Build 0)  -->
<svg version="1.1" xmlns="http://www.w3.org/2000/svg" xmlns:xlink="http://www.w3.org/1999/xlink" x="0px" y="0px"
	 viewBox="0 0 4535.4 5669.3" style="enable-background:new 0 0 4535.4 5669.3;" xml:space="preserve">
<style type="text/css">
	.st0{stroke:#0000FF;stroke-width:2.834645e-02;}
	.st1{fill:none;stroke:#FF0000;stroke-width:2.834645e-02;}
</style>
<g id="Caminho">
	<path class="st0" d="M3981.7,742.6l0.5,2.1l6.2,24.9l4.1,27.5l1.4,27.7H3957h-7.2h-4.6h-2.2h-0.1l-1.1-22.7l-3.3-22.6l-5.5-22.1
		l-4.5-12.7l-3.1-8.8l-9.8-20.6l-11.7-19.6l-10.5-14.2l-3-4.1l-15.3-16.9l-16.9-15.3l-18.3-13.6l-19.6-11.7l-20.6-9.8l-21.5-7.7
		l-0.9-0.2l-21.3-5.3l-22.6-3.3l-22.7-1.1v0h-0.1h-15.3h-12.3H3661h-233.9h-0.1H1108.3H874.4h-21.9h-12.3h-15.3v-2.3v-4.7v-44.1
		h18.6h30.9h233.9H3427h0.1H3661h30.9h18.6h0.1v0l27.7,1.4l27.5,4.1l11.3,2.8l15.7,3.9l26.2,9.4l25.1,11.9l23.9,14.3l22.3,16.6
		l2.9,2.6l17.7,16.1l18.7,20.6l16.6,22.3l14.3,23.9l11.9,25.1L3981.7,742.6 M3929.7,5024.2l-18.7,20.6l-17.8,16.1l-2.8,2.6
		l-22.3,16.6l-23.9,14.3l-25.1,11.9l-26.2,9.4l-15.7,3.9l-11.3,2.8l-27.5,4.1l-27.7,1.4v-44.1v-4.7v-2.3v0l22.7-1.1l22.6-3.3
		l21.2-5.3l0.9-0.2l21.5-7.7l20.6-9.8l19.6-11.7l18.3-13.6l16.9-15.3l15.3-16.9l3-4l10.6-14.3l11.7-19.6l9.8-20.6l3.1-8.8l4.5-12.7
		l5.6-22.1l3.3-22.6l1.1-22.7h0h2.3h4.7h7.2h36.9l-1.4,27.7l-4.1,27.5l-6.2,24.9l-0.5,2.1l-9.4,26.2l-11.9,25.1l-14.3,23.9
		L3929.7,5024.2 M592.4,824.8h-2.3h-4.7h-7.2h-36.9l1.4-27.7l4.1-27.5l6.2-24.9l0.5-2.1l9.4-26.2l11.9-25.1l14.3-23.9l16.6-22.3
		l18.7-20.6l17.8-16.1l2.8-2.6l22.3-16.6l23.9-14.3l25.1-11.9l26.2-9.4l15.7-3.9l11.3-2.8l27.5-4.1l27.7-1.4v44.1v4.7v2.3v0
		l-22.7,1.1l-22.6,3.3l-21.2,5.3l-0.9,0.2l-21.5,7.7l-20.6,9.8l-19.6,11.7l-18.3,13.6l-16.9,15.3l-15.3,16.9l-3,4l-10.6,14.3
		l-11.7,19.6l-9.8,20.6l-3.1,8.8l-4.5,12.7l-5.6,22.1l-3.3,22.6L592.4,824.8L592.4,824.8 M824.9,5076.9h15.3h12.3h21.9h233.9H3427
		h0.1H3661h21.9h12.3h15.3v2.3v4.7v44.1h-18.6H3661h-233.9H1108.3H874.4h-30.9h-18.6v-44.1v-4.7V5076.9 M769.6,5122.4l-11.3-2.8
		l-15.7-3.9l-26.2-9.4l-25.1-11.9l-23.9-14.3l-22.3-16.6l-2.8-2.6l-17.8-16.1l-18.7-20.6l-16.6-22.3l-14.3-23.9l-11.9-25.1
		l-9.4-26.2l-0.5-2.1l-6.2-24.9l-4.1-27.5l-1.4-27.7h36.9h7.2h4.7h2.3h0l1.1,22.7l3.3,22.6l5.6,22.1l4.5,12.7l3.1,8.8l9.8,20.6
		l11.7,19.6l10.6,14.3l3,4l15.3,16.9l16.9,15.3l18.3,13.6l19.6,11.7l20.6,9.8l21.5,7.7l0.9,0.2l21.2,5.3l22.6,3.3l22.7,1.1v0v2.3
		v4.7v44.1l-27.7-1.4L769.6,5122.4 M3710.6,2860.2h-15.3h-12.3H3661h-233.9h-0.1H1108.3H874.4h-21.9h-12.3h-15.3v-2.3v-4.7v-18.6
		v-25.5h18.6h14.9h14.7h14.7h220.5H3427h0.1h220.5h14.7h14.7h14.9h18.6v25.5v18.6v4.7V2860.2 M3710.6,2860.2L3710.6,2860.2v-2.3
		v-4.7v-18.5v-25.5l27.7,1.4l27.5,4.1l27,6.7l26.2,9.4l8.3,3.9l16.8,8l23.9,14.3l22.3,16.6l2.8,2.6l17.8,16.1l18.7,20.6l13.3,17.9
		v-3.2v-6.3v-86.5v-14.1v-11.4V1108.3V976.9V860.8V826v-1.1h2.2h4.6h7.3h36.9h0.1v283.5v1700.8v13.9v11.6v132.8v16.3v15.7v67.4V3183
		v116.1v77v1184.9v131.4v116.1v35.9h-36.9h-7.2h-4.7h-2.3v-35.9v-116.1v-131.4V3376.1v-77V3183v-90.4v-0.1h0l-1.1-22.7l-0.4-2.9
		l-2.9-19.6l-5.6-22.1l-7.7-21.5l-9.8-20.6l-11.7-19.6l-10.6-14.3l-3-4l-15.3-16.9l-16.9-15.3l-18.3-13.6l-19.6-11.7l-20.6-9.8
		l-21.5-7.7l-0.9-0.2l-21.2-5.3l-22.6-3.3L3710.6,2860.2 M691.3,2842.6l16.8-8l8.3-3.9l26.2-9.4l27-6.7l27.5-4.1l27.7-1.4v25.5v18.5
		v4.7v2.3v0l-22.7,1.1l-22.6,3.3l-21.2,5.3l-0.9,0.2l-21.5,7.7l-20.6,9.8l-19.6,11.7l-18.3,13.6l-16.9,15.3l-15.3,16.9l-3,4
		l-10.6,14.3l-11.7,19.6l-9.8,20.6l-7.7,21.5l-5.6,22.1l-2.9,19.6l-0.4,2.9l-1.1,22.7h0v0.1v90.4v116.1v77v1184.9v131.4v116.1v35.9
		h-2.3h-4.7h-7.2h-36.9v-35.9v-116.1v-131.4V3376.1v-77V3183v-116.1v-67.4v-15.7v-16.3v-132.8V2823v-13.9V1108.3V976.9V860.8v-35.9
		h36.9h7.2h4.7h2.3v35.9v116.1v131.4v1700.8v11.4v14.1v86.5v6.3v3.2l13.3-17.9l18.7-20.6l17.8-16.1l2.8-2.6l22.3-16.6L691.3,2842.6z
		"/>
</g>
<g id="Bloco">
	<path id="Composto" class="st1" d="M1417.3,3316.5l85,85h0L1417.3,3316.5h567l-85,85h0l85-85l0.1-0.1L1417.3,3316.5L1417.3,3316.5
		 M1218.9,3118.1l-85-85v0L1218.9,3118.1L1218.9,3118.1l0.1-567l-0.1,0.1l-85,85v0l85-85V3118.1 M3118.1-85l-85,85h368.5h85h0.1
		h283.4l-85-85H4252l-85,85h368.5v368.5l85-85v566.9l-85-85v283.4v85.1v368.5l85-85v566.9l-85-85v283.4v85.1v368.5l85-85v566.9
		l-85-85v283.4v85.1v368.5l85-85V4252l-85-85v283.4v85.1v368.5l85-85v566.9l-85-85v283.4v85.1H4167l85.1-85.1H3685l85.1,85.1h-283.4
		h-0.1h-85h-368.5l85.1-85.1h-567.1l85.1,85.1h-283.4h-0.1h-85h-368.5l85.1-85.1h-567.1l85.1,85.1H1219h-0.1h-85H765.4l85.1-85.1
		H283.4l85.1,85.1H85.1H0v-368.5l85.1,85.1v-567.1L0,4903.9v-368.5V4167l85.1,85.1V3685L0,3770.1v-368.5v-368.5l85.1,85.1v-567.1
		L0,2636.2v-368.5v-368.5l85.1,85.1v-567.1L0,1502.3v-368.5V765.4l85.1,85.1V283.4L0,368.5V0h85.1h283.4l-85-85h566.9l-85,85h368.5
		h85h0.1h283.4l-85-85h566.9l-85,85h368.5h85h0.1h283.4l-85-85H3118.1 M3118.1,3316.5l-85,85h0L3118.1,3316.5L3118.1,3316.5
		l-567-0.1l0.1,0.1H3118.1 M2352.8,4252l-85-85v0v0l56.4,56.4L2352.8,4252L2352.8,4252l0.1-567l-0.1,0.1l-85,85v0l85-85V4252
		 M4252,4450.4l-85,85h0L4252,4450.4L4252,4450.4l-567-0.1l0.1,0.1H4252 M283.4,3316.5l85,85h0L283.4,3316.5h567l-85,85h0l85-85
		l0.1-0.1L283.4,3316.5L283.4,3316.5 M283.4,4450.4l85,85h0L283.4,4450.4h567l-85,85h0l85-85l0.1-0.1L283.4,4450.4L283.4,4450.4
		 M4252,3316.5l-85,85h0L4252,3316.5L4252,3316.5l-567-0.1l0.1,0.1H4252 M1417.3,4450.4l85,85h0L1417.3,4450.4h567l-85,85h0l85-85
		l0.1-0.1L1417.3,4450.4L1417.3,4450.4 M2551.2,4450.4l85,85h0L2551.2,4450.4h566.9l-85,85h0l85-85l0.1-0.1L2551.2,4450.4
		L2551.2,4450.4 M1218.9,4252l-85-85v0L1218.9,4252L1218.9,4252l0.1-567l-0.1,0.1l-85,85v0l85-85V4252 M3486.6,3118.1l-85-85v0
		L3486.6,3118.1L3486.6,3118.1l0.1-567l-0.1,0.1l-85,85v0l85-85V3118.1 M2324.1,5357.2l28.6,28.6l0.1,0.1v-567.1l-0.1,0.1l-85,85v0
		l85-85v566.9l-85-85v0v0L2324.1,5357.2 M2324.1,1955.6l28.6,28.6l0.1,0.1v-567.1l-0.1,0.1l-85,85v0l85-85v566.9l-85-85v0v0
		L2324.1,1955.6 M1218.9,5385.8l-85-85v0L1218.9,5385.8L1218.9,5385.8l0.1-567l-0.1,0.1l-85,85v0l85-85V5385.8 M2324.1,3089.5
		l28.6,28.6l0.1,0.1v-567.1l-0.1,0.1l-85,85v0l85-85v566.9l-85-85v0v0L2324.1,3089.5 M2324.1,821.8l28.6,28.6l0.1,0.1V283.4
		l-0.1,0.1l-85,85v0l85-85v566.9l-85-85v0v0L2324.1,821.8 M1218.9,283.5v566.9l-85-85v0l85,85l0.1,0.1L1218.9,283.5L1218.9,283.5
		l-85,85v0L1218.9,283.5 M1218.9,1417.3v566.9l-85-85v0l85,85l0.1,0.1L1218.9,1417.3L1218.9,1417.3l-85,85v0L1218.9,1417.3
		 M3415.8,3755.9l-14.2,14.2v0L3415.8,3755.9 M3401.6,368.5L3401.6,368.5l85-85v566.9l0.1,0.1V283.4l-0.1,0.1L3401.6,368.5
		 M2636.2,3401.6l-85-85L2636.2,3401.6L2636.2,3401.6 M3415.8,4889.7l-14.2,14.2v0L3415.8,4889.7 M3033.1,2267.7l85-85l0.1-0.1
		h-567.1l0.1,0.1h566.9L3033.1,2267.7L3033.1,2267.7 M3415.8,779.6l-14.2-14.2v0L3415.8,779.6 M4252.1,1048.7H3685l0.1,0.1
		L4252.1,1048.7l-85.1,85.1h0L4252.1,1048.7L4252.1,1048.7 M2636.2,1133.9l-14.2-14.2L2636.2,1133.9L2636.2,1133.9 M3033.1,1133.9
		l85-85l0.1-0.1h-567.1l0.1,0.1h566.9L3033.1,1133.9L3033.1,1133.9 M3415.8,1913.4l-14.2-14.2v0L3415.8,1913.4 M3401.6,1502.3
		L3401.6,1502.3l85-85v566.9l0.1,0.1v-567.1l-0.1,0.1L3401.6,1502.3 M1984.2,2182.7L1984.2,2182.7l-567-0.1l0.1,0.1l85,85h0l-85-85
		H1984.2 M3401.6,4167l85,85l0.1,0.1V3685l-0.1,0.1V4252L3401.6,4167L3401.6,4167 M1502.4,1133.9L1502.4,1133.9l-85-85h566.9
		l0.1-0.1h-567.1l0.1,0.1L1502.4,1133.9 M3770.1,1133.9l-14.2-14.2L3770.1,1133.9L3770.1,1133.9 M1899.2,1133.9l14.2-14.2
		L1899.2,1133.9L1899.2,1133.9 M3685.1,2182.7H4252l-85,85h0l85-85l0.1-0.1L3685.1,2182.7L3685.1,2182.7 M3401.6,5300.8l85,85
		l0.1,0.1v-567.1l-0.1,0.1v566.9L3401.6,5300.8L3401.6,5300.8 M3770.1,4535.4l-85-85L3770.1,4535.4L3770.1,4535.4 M850.5,2182.6
		H283.4l0.1,0.1l85,85h0l-85-85L850.5,2182.6L850.5,2182.6 M368.5,1133.9L368.5,1133.9l-85-85h566.9l0.1-0.1H283.4l0.1,0.1
		L368.5,1133.9 M3770.1,3401.6l-85-85L3770.1,3401.6L3770.1,3401.6 M765.4,1133.9l14.2-14.2L765.4,1133.9L765.4,1133.9z"/>
	<path class="st1" d="M0,4535.4h85.1h283.4l-85-85h566.9l-85,85h368.5v368.5l85-85v566.9l-85-85v283.4v85.1H765.4l85.1-85.1H283.4
		l85.1,85.1H85.1H0v-368.5l85.1,85.1v-567.1L0,4903.9V4535.4z"/>
	<path class="st1" d="M1133.9,4535.4h85.1h283.4l-85-85h566.9l-85,85h368.5v368.5l85-85v566.9l-85-85v283.4v85.1h-368.5l85.1-85.1
		h-567.1l85.1,85.1H1219h-85.1v-368.5l85.1,85.1v-567.1l-85.1,85.1V4535.4z"/>
	<path class="st1" d="M2267.7,4535.4h85.1h283.4l-85-85h566.9l-85,85h368.5v368.5l85-85v566.9l-85-85v283.4v85.1h-368.5l85.1-85.1
		h-567.1l85.1,85.1h-283.4h-85.1v-368.5l85.1,85.1v-567.1l-85.1,85.1V4535.4z"/>
	<path class="st1" d="M3401.6,4535.4h85.1h283.4l-85-85H4252l-85,85h368.5v368.5l85-85v566.9l-85-85v283.4v85.1H4167l85.1-85.1H3685
		l85.1,85.1h-283.4h-85.1v-368.5l85.1,85.1v-567.1l-85.1,85.1V4535.4z"/>
	<path class="st1" d="M0,3401.5h85.1h283.4l-85-85h566.9l-85,85h368.5V3770l85-85v566.9l-85-85v283.4v85.1H765.4l85.1-85.1H283.4
		l85.1,85.1H85.1H0v-368.5l85.1,85.1v-567.1L0,3770V3401.5z"/>
	<path class="st1" d="M1133.9,3401.5h85.1h283.4l-85-85h566.9l-85,85h368.5V3770l85-85v566.9l-85-85v283.4v85.1h-368.5l85.1-85.1
		h-567.1l85.1,85.1H1219h-85.1v-368.5l85.1,85.1v-567.1l-85.1,85.1V3401.5z"/>
	<path class="st1" d="M2267.7,3401.5h85.1h283.4l-85-85h566.9l-85,85h368.5V3770l85-85v566.9l-85-85v283.4v85.1h-368.5l85.1-85.1
		h-567.1l85.1,85.1h-283.4h-85.1v-368.5l85.1,85.1v-567.1l-85.1,85.1V3401.5z"/>
	<path class="st1" d="M3401.6,3401.5h85.1h283.4l-85-85H4252l-85,85h368.5V3770l85-85v566.9l-85-85v283.4v85.1H4167l85.1-85.1H3685
		l85.1,85.1h-283.4h-85.1v-368.5l85.1,85.1v-567.1l-85.1,85.1V3401.5z"/>
	<path class="st1" d="M0,2267.7h85.1h283.4l-85-85h566.9l-85,85h368.5v368.5l85-85v566.9l-85-85v283.4v85.1H765.4l85.1-85.1H283.4
		l85.1,85.1H85.1H0v-368.5l85.1,85.1v-567.1L0,2636.2V2267.7z"/>
	<path class="st1" d="M1133.9,2267.7h85.1h283.4l-85-85h566.9l-85,85h368.5v368.5l85-85v566.9l-85-85v283.4v85.1h-368.5l85.1-85.1
		h-567.1l85.1,85.1H1219h-85.1v-368.5l85.1,85.1v-567.1l-85.1,85.1V2267.7z"/>
	<path class="st1" d="M2267.7,2267.7h85.1h283.4l-85-85h566.9l-85,85h368.5v368.5l85-85v566.9l-85-85v283.4v85.1h-368.5l85.1-85.1
		h-567.1l85.1,85.1h-283.4h-85.1v-368.5l85.1,85.1v-567.1l-85.1,85.1V2267.7z"/>
	<path class="st1" d="M3401.6,2267.7h85.1h283.4l-85-85H4252l-85,85h368.5v368.5l85-85v566.9l-85-85v283.4v85.1H4167l85.1-85.1H3685
		l85.1,85.1h-283.4h-85.1v-368.5l85.1,85.1v-567.1l-85.1,85.1V2267.7z"/>
	<path class="st1" d="M0,1133.8h85.1h283.4l-85-85h566.9l-85,85h368.5v368.5l85-85v566.9l-85-85v283.4v85.1H765.4l85.1-85.1H283.4
		l85.1,85.1H85.1H0v-368.5l85.1,85.1v-567.1L0,1502.3V1133.8z"/>
	<path class="st1" d="M1133.9,1133.8h85.1h283.4l-85-85h566.9l-85,85h368.5v368.5l85-85v566.9l-85-85v283.4v85.1h-368.5l85.1-85.1
		h-567.1l85.1,85.1H1219h-85.1v-368.5l85.1,85.1v-567.1l-85.1,85.1V1133.8z"/>
	<path class="st1" d="M2267.7,1133.8h85.1h283.4l-85-85h566.9l-85,85h368.5v368.5l85-85v566.9l-85-85v283.4v85.1h-368.5l85.1-85.1
		h-567.1l85.1,85.1h-283.4h-85.1v-368.5l85.1,85.1v-567.1l-85.1,85.1V1133.8z"/>
	<path class="st1" d="M3401.6,1133.8h85.1h283.4l-85-85H4252l-85,85h368.5v368.5l85-85v566.9l-85-85v283.4v85.1H4167l85.1-85.1H3685
		l85.1,85.1h-283.4h-85.1v-368.5l85.1,85.1v-567.1l-85.1,85.1V1133.8z"/>
	<path class="st1" d="M0,0.1h85.1h283.4l-85-85h566.9l-85,85h368.5v368.5l85-85v566.9l-85-85v283.4v85.1H765.4l85.1-85.1H283.4
		l85.1,85.1H85.1H0V765.4l85.1,85.1V283.5L0,368.6V0.1z"/>
	<path class="st1" d="M1133.9,0.1h85.1h283.4l-85-85h566.9l-85,85h368.5v368.5l85-85v566.9l-85-85v283.4v85.1h-368.5l85.1-85.1
		h-567.1l85.1,85.1H1219h-85.1V765.4l85.1,85.1V283.5l-85.1,85.1V0.1z"/>
	<path class="st1" d="M2267.7,0.1h85.1h283.4l-85-85h566.9l-85,85h368.5v368.5l85-85v566.9l-85-85v283.4v85.1h-368.5l85.1-85.1
		h-567.1l85.1,85.1h-283.4h-85.1V765.4l85.1,85.1V283.5l-85.1,85.1V0.1z"/>
	<path class="st1" d="M3401.6,0.1h85.1h283.4l-85-85H4252l-85,85h368.5v368.5l85-85v566.9l-85-85v283.4v85.1H4167l85.1-85.1H3685
		l85.1,85.1h-283.4h-85.1V765.4l85.1,85.1V283.5l-85.1,85.1V0.1z"/>
</g>
</svg>
