<?xml version="1.0" encoding="utf-8"?>
<!-- Generator: Adobe Illustrator 20.1.0, SVG Export Plug-In . SVG Version: 6.00 Build 0)  -->
<svg version="1.1" id="Camada_1" xmlns="http://www.w3.org/2000/svg" xmlns:xlink="http://www.w3.org/1999/xlink" x="0px" y="0px"
	 viewBox="0 0 4535.4 5669.3" style="enable-background:new 0 0 4535.4 5669.3;" xml:space="preserve">
<style type="text/css">
	.st0{fill:#020202;stroke:#000000;stroke-miterlimit:10;}
	.st1{fill:#FDFDFD;stroke:#FFFFFF;stroke-miterlimit:10;}
</style>
<g id="Camada_2">
	<rect class="st0" width="4535.4" height="5669.3"/>
</g>
<g id="Camada_1_1_">
	<path class="st1" d="M4006.5,2830.1l3,4l1,2l9,13l12,20l10,21l8,21l6,22l3,20v3l1,23l0,0l0,0v90V3261v1416.6v15v231.9v36l0,0h2h5h7
		h37l0,0l0,0V3261V993.7V709.8l0,0l0,0h-37h-7h-5h-2l0,0v36v231.9v15v1700.5l0,0v112v6v3l-13-18l-19-21l-18-16l-3-2l-22-17l-24-14
		l-25-12l-26-9l-16-4l-11-3l-28-4l-28-1v44v5v2l0,0l0,0l23,1l23,3l21,5h1l21,8l21,10l20,12l18,14l17,15L4006.5,2830.1 M640.9,487.9
		L640.9,487.9l22-5l23-3l23-1l0,0l0,0v-2v-5v-44l-28,1l-27,3l-11,3l-16,4l-26,9l-25,12l-24,14l-22,17l-21,19l-4,4l-15,16l-17,22
		l-14,24l-8,18l-4,8l-7,19l-3,8l-1,2l-5,25l-4,28l-1,28h37h7h5h2l0,0l1-23l3-23l6-22l4-13l3-9l10-21l12-20l14-18l15-17l16-15l18-14
		l5-3l15-9l21-10L640.9,487.9 M476.9,2815.2v-3v-6v-112l0,0V993.7v-15V745.8v-36l0,0h-2h-5h-8h-37l0,0l0,0v4250.7l0,0l0,0h37h7h5h2
		l0,0v-36v-231.9v-15V3261v-192.9v-90l0,0l0,0l1-23v-3l3-20l6-22l8-21l10-21l12-20l9-13l1-2l3-4l15-17l17-15l18-14l20-12l21-10l21-8
		h1l21-5l23-3l23-1l0,0l0,0v-2v-5v-44l-28,1l-28,4l-11,3l-16,4l-26,9l-25,12l-24,14l-22,17l-3,2l-18,16l-19,21L476.9,2815.2
		 M663.9,5188.4l-21-5h-1l-21-8l-21-10l-15-9l-5-3l-18-13l-17-15l-15-17l-14-18l-12-20l-10-21l-3-9l-4-13l-6-22l-3-23l-1-23l0,0h-2
		h-5h-8h-37l1,28l4,28l6,25l1,2l3,8l7,19l3,7l8,18l14,24l17,22l15,16l4,4l21,19l18,13l4,3l24,14l25,12l26,9l16,4l11,3l28,4l28,1v-42
		v-5v-2l0,0l0,0l-23-1L663.9,5188.4 M4535.4,5669.3H3401.6H2268.7H1133.9H0v-1V0h424.9l0,0h566.9h2550.7h567.9l0,0h424.9v993.7V3261
		v1932.4v51l0,0v423.9v1 M3974.5,5140.5l-18,14l-5,3l-15,9l-21,10l-21,8h-1l-21,5l-23,3l-23,1l0,0l0,0v2v5v44l28-1l28-4l11-3l16-4
		l26-9l25-12l24-14l4-3l18-13l21-19l4-4l15-16l17-22l14-24l8-18l3-7l7-19l3-8l1-2l6-25l4-28l1-28h-37h-7h-5h-2l0,0l-1,23l-3,23
		l-6,22l-4,13l-3,9l-10,21l-12,20l-14,18l-15,17L3974.5,5140.5 M4041.5,620.8l3,9l4,13l6,22l3,23l1,23l0,0h2h5h7h37l-1-28l-4-28
		l-6-25l-1-2l-3-8l-7-19l-3-7l-8-18l-14-24l-17-22l-15-16l-4-4l-21-19l-22-17l-24-14l-25-12l-26-9l-16-4l-11-3l-28-4l-28-1v44v5v2
		l0,0l0,0l23,1l23,3l21,5h1l21,8l21,10l15,9l5,3l18,14l17,15l15,17l15,18l12,20L4041.5,620.8 M708.9,5244.4L708.9,5244.4h3117.6l0,0
		l0,0v-44v-5v-2h-15h-12h-22h-116h-118H991.9h-117h-116h-22h-12h-15v2v5v44H708.9 M708.9,2738.2v5v2h15h12h22h116h118h2550.7h118
		h116h22h12h15v-2v-5v-44l0,0l0,0h-283H991.9h-283l0,0l0,0V2738.2 M3660.5,477.9h116h22h12h15v-2v-5v-44l0,0l0,0h-283H991.9h-283
		l0,0l0,0v44v5v2h15h12h22h116h118h2550.7H3660.5z"/>
</g>
</svg>
